<svg width="80" height="80" viewBox="0 0 80 80" fill="none" xmlns="http://www.w3.org/2000/svg">
<path d="M55.728 13.4707C55.728 13.4707 56.0861 13.096 56.4416 13.1146C56.7974 13.1334 58.4115 13.5171 60.7344 15.3118C60.7344 15.3118 56.2003 14.9131 55.728 13.4707Z" fill="#828282"/>
<path d="M58.412 7.271H56.8749V42.7685H58.412V7.271Z" fill="#4C4C50"/>
<path d="M45.646 8.5545H44.1089V44.052H45.646V8.5545Z" fill="#4C4C50"/>
<path d="M58.7961 10.4493H56.4904V7.01219C56.4904 6.89911 56.4071 6.80715 56.3051 6.80715H46.2153C46.113 6.80715 46.0305 6.89911 46.0305 7.01219V9.87008H43.7246V7.01219C43.7246 5.62745 44.842 4.50122 46.2153 4.50122H56.3051C57.6788 4.50122 58.7961 5.62745 58.7961 7.01219V10.4493Z" fill="#DC3224"/>
<path d="M41.5934 74.3726C42.913 74.3726 43.9828 73.3028 43.9828 71.9832C43.9828 70.6635 42.913 69.5938 41.5934 69.5938C40.2738 69.5938 39.204 70.6635 39.204 71.9832C39.204 73.3028 40.2738 74.3726 41.5934 74.3726Z" fill="#4C4C50"/>
<path d="M64.6 71.9832C64.6 73.3032 63.5293 74.3728 62.2096 74.3728C60.8906 74.3728 59.8204 73.3032 59.8204 71.9832C59.8204 70.6633 60.8908 69.5938 62.2096 69.5938C63.5293 69.5938 64.6 70.6635 64.6 71.9832Z" fill="#4C4C50"/>
<path d="M68.1603 54.0035V36.4236C69.1758 36.4236 69.9999 37.2467 69.9999 38.263V52.1635C69.9999 53.1798 69.176 54.0035 68.1603 54.0035Z" fill="#4C4C50"/>
<path d="M63.6305 70.818H39.625C36.6595 70.818 34.2551 68.4136 34.2551 65.4481V27.1016C34.2551 24.1356 36.6595 21.7318 39.625 21.7318H63.6305C66.596 21.7318 69.0004 24.1356 69.0004 27.1016V65.4481C69.0004 68.4136 66.596 70.818 63.6305 70.818Z" fill="#DC3224"/>
<g style="mix-blend-mode:multiply" opacity="0.3">
<path d="M44.5765 64.3897C44.5765 64.7117 44.4347 65.0206 44.1823 65.2484C43.9299 65.4761 43.5876 65.6041 43.2306 65.6041C42.8737 65.6041 42.5314 65.4761 42.279 65.2484C42.0266 65.0206 41.8848 64.7117 41.8848 64.3897V30.6142C41.8848 30.2921 42.0266 29.9833 42.279 29.7555C42.5314 29.5278 42.8737 29.3998 43.2306 29.3998C43.5876 29.3998 43.9299 29.5278 44.1823 29.7555C44.4347 29.9833 44.5765 30.2921 44.5765 30.6142V64.3897Z" fill="#DC3224"/>
</g>
<g style="mix-blend-mode:multiply" opacity="0.3">
<path d="M50.0946 64.3897C50.0946 64.7117 49.9528 65.0206 49.7004 65.2484C49.448 65.4761 49.1057 65.6041 48.7487 65.6041C48.3918 65.6041 48.0494 65.4761 47.797 65.2484C47.5446 65.0206 47.4028 64.7117 47.4028 64.3897V30.6142C47.4028 30.2921 47.5446 29.9833 47.797 29.7555C48.0494 29.5278 48.3918 29.3998 48.7487 29.3998C49.1057 29.3998 49.448 29.5278 49.7004 29.7555C49.9528 29.9833 50.0946 30.2921 50.0946 30.6142V64.3897Z" fill="#DC3224"/>
</g>
<g style="mix-blend-mode:multiply" opacity="0.3">
<path d="M55.6128 64.3897C55.6128 64.7117 55.471 65.0206 55.2186 65.2484C54.9662 65.4761 54.6238 65.6041 54.2669 65.6041C53.9099 65.6041 53.5676 65.4761 53.3152 65.2484C53.0628 65.0206 52.921 64.7117 52.921 64.3897V30.6142C52.921 30.2921 53.0628 29.9833 53.3152 29.7555C53.5676 29.5278 53.9099 29.3998 54.2669 29.3998C54.6238 29.3998 54.9662 29.5278 55.2186 29.7555C55.471 29.9833 55.6128 30.2921 55.6128 30.6142V64.3897Z" fill="#DC3224"/>
</g>
<g style="mix-blend-mode:multiply" opacity="0.3">
<path d="M61.2654 64.3897C61.2654 64.7117 61.1165 65.0206 60.8515 65.2484C60.5865 65.4761 60.2271 65.6041 59.8523 65.6041C59.4775 65.6041 59.118 65.4761 58.853 65.2484C58.588 65.0206 58.4391 64.7117 58.4391 64.3897V30.6142C58.4391 30.2921 58.588 29.9833 58.853 29.7555C59.118 29.5278 59.4775 29.3998 59.8523 29.3998C60.2271 29.3998 60.5865 29.5278 60.8515 29.7555C61.1165 29.9833 61.2654 30.2921 61.2654 30.6142V64.3897Z" fill="#DC3224"/>
</g>
<g style="mix-blend-mode:multiply" opacity="0.15">
<path d="M43.0961 29.3998C42.7608 29.4398 42.4536 29.5831 42.231 29.8034C42.0084 30.0238 41.8854 30.3062 41.8848 30.5987V64.4057C41.8854 64.6981 42.0084 64.9805 42.231 65.2007C42.4536 65.421 42.7609 65.5642 43.0961 65.6041V29.3998Z" fill="#777776"/>
</g>
<g style="mix-blend-mode:multiply" opacity="0.15">
<path d="M48.7487 29.3998C48.3905 29.4032 48.0482 29.5325 47.7962 29.7596C47.5442 29.9867 47.4028 30.2933 47.4028 30.6128V64.391C47.403 64.7105 47.5443 65.0171 47.7963 65.2442C48.0483 65.4713 48.3905 65.6006 48.7487 65.6041V29.3998Z" fill="#777776"/>
</g>
<g style="mix-blend-mode:multiply" opacity="0.15">
<path d="M54.2669 29.3998C53.9059 29.411 53.5638 29.5433 53.3128 29.7691C53.0618 29.9948 52.9214 30.2963 52.921 30.6101V64.3938C52.9215 64.7076 53.062 65.009 53.313 65.2347C53.564 65.4604 53.9059 65.5928 54.2669 65.6041V29.3998Z" fill="#777776"/>
</g>
<g style="mix-blend-mode:multiply" opacity="0.15">
<path d="M59.785 29.3998C59.421 29.4184 59.0791 29.5536 58.829 29.7779C58.5789 30.0022 58.4395 30.2987 58.4391 30.6069V64.397C58.4396 64.7051 58.5791 65.0015 58.8292 65.2258C59.0792 65.4501 59.421 65.5854 59.785 65.6041V29.3998Z" fill="#777776"/>
</g>
<path d="M64.589 24.5673C64.5248 24.4395 64.3789 24.2858 64.0466 24.2858C63.6479 24.2858 63.0171 24.5042 62.1182 24.9535C61.978 25.0239 61.8254 25.1033 61.662 25.1911L61.1067 25.0498C61.0743 25.0417 61.041 25.0375 61.0076 25.0374C60.9316 25.0389 60.8569 25.0582 60.7897 25.0937L60.5109 25.2333C60.4377 25.265 60.3751 25.3172 60.3306 25.3834C60.2862 25.4497 60.2618 25.5274 60.2603 25.6072C60.262 25.6646 60.2791 25.7206 60.3098 25.7692C60.3405 25.8178 60.3837 25.8573 60.4348 25.8836L60.4484 25.8926C60.1775 26.0615 59.9353 26.2186 59.7309 26.3627C59.6396 26.3059 59.5543 26.2401 59.4763 26.1662C59.3378 26.0435 59.1947 25.9163 58.9931 25.9163C58.9322 25.9164 58.8719 25.9284 58.8157 25.9517C58.7471 25.9748 58.6843 26.0122 58.6312 26.0614C58.5782 26.1106 58.5363 26.1705 58.5082 26.2372C58.435 26.432 58.5268 26.6155 58.5876 26.7371L58.9914 27.5451C59.064 27.6897 59.1851 27.9318 59.456 27.9318C59.5235 27.9311 59.59 27.9155 59.6509 27.8862C59.7635 27.8463 60.5841 27.5569 61.4998 27.1836L61.6305 28.326C61.6336 28.4317 61.6767 28.5323 61.751 28.6075C61.7903 28.6474 61.8371 28.6791 61.8887 28.7009C61.9403 28.7226 61.9958 28.7339 62.0518 28.7341C62.1172 28.7341 62.1816 28.7187 62.2399 28.6891L62.5215 28.55C62.581 28.5197 62.6325 28.4757 62.6717 28.4215C62.7109 28.3674 62.7366 28.3047 62.7468 28.2387L63.0188 26.5097C63.0852 26.477 63.15 26.4444 63.2136 26.4111C63.997 26.0046 64.9928 25.3763 64.589 24.5673Z" fill="white"/>
<path d="M60.6251 25.4596L60.9067 25.32C60.9494 25.2969 60.9987 25.2892 61.0464 25.298L62.879 25.7631L61.667 26.3689L60.5609 25.6578C60.4787 25.6234 60.5142 25.5148 60.6251 25.4596Z" fill="white"/>
<path d="M58.9101 26.1858C59.1641 26.0822 59.3247 26.4949 59.7549 26.6553C60.4308 26.1616 61.5177 25.5389 62.233 25.1825C63.3672 24.6155 64.2008 24.3633 64.3601 24.6814C64.5195 24.9995 64.484 25.4651 63.0958 26.1818C61.7075 26.8986 59.5527 27.6457 59.5527 27.6457C59.3838 27.7307 59.3055 27.5967 59.2205 27.4261L58.8161 26.6187C58.731 26.4504 58.6584 26.2894 58.9101 26.1858Z" fill="white"/>
<path d="M62.1256 28.4576L62.4072 28.3185C62.4306 28.3065 62.451 28.2891 62.4665 28.2678C62.4821 28.2465 62.4924 28.2218 62.4967 28.1958L62.8791 25.7624L61.6671 26.3682L61.889 28.3067C61.8888 28.3347 61.8957 28.3624 61.9091 28.387C61.9225 28.4116 61.9419 28.4325 61.9655 28.4476C61.9892 28.4626 62.0163 28.4715 62.0442 28.4732C62.0722 28.475 62.1002 28.4696 62.1256 28.4576Z" fill="white"/>
<path d="M63.2891 25.2345C63.3044 25.265 63.3284 25.2904 63.3581 25.3073C63.3879 25.3242 63.4219 25.3319 63.456 25.3294C63.4901 25.327 63.5228 25.3145 63.5498 25.2935C63.5768 25.2725 63.5969 25.244 63.6077 25.2116C63.6185 25.1791 63.6194 25.1442 63.6104 25.1113C63.6013 25.0783 63.5827 25.0488 63.5568 25.0264C63.531 25.004 63.4991 24.9898 63.4652 24.9855C63.4312 24.9813 63.3968 24.9872 63.3662 25.0025C63.3459 25.0127 63.3278 25.0267 63.313 25.0439C63.2981 25.061 63.2867 25.081 63.2796 25.1025C63.2724 25.124 63.2696 25.1468 63.2712 25.1694C63.2728 25.1921 63.2789 25.2142 63.2891 25.2345Z" fill="white"/>
<path d="M62.7134 25.522C62.7287 25.5525 62.7526 25.5779 62.7823 25.5949C62.812 25.6118 62.8461 25.6196 62.8802 25.6172C62.9143 25.6148 62.9469 25.6024 62.9739 25.5814C63.0009 25.5605 63.0212 25.5321 63.032 25.4997C63.0429 25.4673 63.0439 25.4324 63.0349 25.3994C63.0259 25.3664 63.0074 25.3368 62.9816 25.3144C62.9558 25.292 62.924 25.2777 62.8901 25.2733C62.8562 25.269 62.8217 25.2748 62.7911 25.29C62.7708 25.3001 62.7526 25.3141 62.7377 25.3313C62.7228 25.3484 62.7114 25.3683 62.7041 25.3899C62.6969 25.4114 62.694 25.4342 62.6956 25.4568C62.6972 25.4795 62.7032 25.5016 62.7134 25.522Z" fill="white"/>
<path d="M62.1384 25.8099C62.1537 25.8405 62.1778 25.8658 62.2075 25.8827C62.2372 25.8996 62.2713 25.9073 62.3054 25.9049C62.3395 25.9024 62.3721 25.8899 62.3991 25.869C62.4261 25.848 62.4463 25.8195 62.4571 25.787C62.4679 25.7546 62.4688 25.7197 62.4597 25.6867C62.4507 25.6537 62.4321 25.6242 62.4062 25.6018C62.3804 25.5794 62.3484 25.5652 62.3145 25.561C62.2806 25.5567 62.2462 25.5626 62.2156 25.5779C62.1953 25.5881 62.1772 25.6022 62.1623 25.6193C62.1475 25.6365 62.1361 25.6564 62.1289 25.6779C62.1218 25.6995 62.1189 25.7222 62.1206 25.7449C62.1222 25.7675 62.1283 25.7896 62.1384 25.8099Z" fill="white"/>
<path d="M61.5629 26.0974C61.5781 26.128 61.6021 26.1534 61.6318 26.1703C61.6615 26.1873 61.6955 26.195 61.7296 26.1926C61.7637 26.1903 61.7964 26.1778 61.8234 26.1569C61.8504 26.136 61.8707 26.1075 61.8815 26.0751C61.8924 26.0427 61.8934 26.0078 61.8844 25.9748C61.8754 25.9419 61.8569 25.9123 61.8311 25.8899C61.8053 25.8674 61.7734 25.8531 61.7395 25.8488C61.7056 25.8444 61.6712 25.8502 61.6406 25.8654C61.6202 25.8756 61.6021 25.8896 61.5872 25.9067C61.5722 25.9239 61.5608 25.9438 61.5536 25.9653C61.5464 25.9869 61.5435 26.0096 61.5451 26.0323C61.5467 26.0549 61.5527 26.0771 61.5629 26.0974Z" fill="white"/>
<path d="M60.9877 26.3854C61.003 26.4159 61.027 26.4413 61.0567 26.4582C61.0865 26.4751 61.1205 26.4828 61.1546 26.4803C61.1888 26.4779 61.2214 26.4654 61.2484 26.4444C61.2754 26.4234 61.2955 26.3949 61.3063 26.3625C61.3171 26.33 61.318 26.2951 61.309 26.2622C61.2999 26.2292 61.2813 26.1997 61.2555 26.1773C61.2296 26.1549 61.1977 26.1407 61.1638 26.1364C61.1298 26.1322 61.0954 26.1381 61.0648 26.1534C61.0445 26.1636 61.0264 26.1776 61.0116 26.1948C60.9967 26.2119 60.9854 26.2319 60.9782 26.2534C60.971 26.2749 60.9682 26.2977 60.9698 26.3203C60.9714 26.343 60.9775 26.3651 60.9877 26.3854Z" fill="white"/>
<path d="M31.9183 27.0766C31.9183 27.0766 26.5239 32.021 27.4876 35.7461C28.4507 39.4713 36.4777 37.159 43.2208 32.7917C49.964 28.4254 53.6882 24.0586 51.633 19.8201C49.5784 15.5813 36.7349 17.5721 31.9183 27.0766Z" fill="url(#paint0_linear_13337_183)"/>
<path d="M33.4453 31.8036C33.4453 31.8036 31.9214 32.3887 30.6686 32.7021C30.6686 32.7021 32.4906 31.7627 33.1454 30.4247C33.1454 30.4247 34.5707 30.5917 33.4453 31.8036Z" fill="#FFE9C7"/>
<path d="M33.8443 31.6361C31.9176 32.5359 31.9176 30.8656 31.9176 30.8656C31.5649 30.2106 31.0717 29.5898 30.5516 29.0046C29.0913 27.3533 27.4365 25.9838 28.1937 24.8935C29.2205 23.4156 29.6714 19.9479 32.6881 18.5357C35.707 17.1234 39.8164 17.5089 41.4232 18.0215C42.814 18.4665 44.4459 19.5859 45.2321 20.7976C45.3535 20.9847 45.4554 21.1731 45.5322 21.3622C46.1105 22.7742 46.3666 22.9034 46.3666 22.9034C48.1663 24.6374 35.7707 30.7367 33.8443 31.6361Z" fill="#FFE9C7"/>
<path d="M33.8443 31.6365C31.9177 32.5364 31.9177 30.8661 31.9177 30.8661C31.5649 30.211 31.0718 29.5903 30.5516 29.0051C31.1892 28.9454 32.0353 28.749 33.0099 28.2326C35.1927 27.0765 41.8085 23.353 43.4767 22.6458C44.2896 22.3005 44.8597 21.5146 45.2321 20.7981C45.3535 20.9852 45.4555 21.1736 45.5322 21.3627C46.1105 22.7747 46.3666 22.9038 46.3666 22.9038C48.1663 24.6379 35.7707 30.7371 33.8443 31.6365Z" fill="#D97F00"/>
<path d="M23.3422 50.3568V51.1216H19.5897V50.3568C19.5897 49.0068 20.4363 47.9025 21.466 47.9025C22.4959 47.9025 23.3422 49.007 23.3422 50.3568Z" stroke="#421E1D" stroke-width="3.7213" stroke-miterlimit="10"/>
<path d="M41.7312 50.3568V51.1216H37.9823V50.3568C37.9823 49.0068 38.8253 47.9025 39.8552 47.9025C40.8884 47.9025 41.7312 49.007 41.7312 50.3568Z" stroke="#421E1D" stroke-width="3.7213" stroke-miterlimit="10"/>
<path d="M23.0887 47.1536C23.0887 47.1536 24.1323 43.5535 30.8765 43.5535C37.1495 43.5535 38.7148 47.456 38.7148 47.456C38.7148 47.456 39.1321 48.875 40.1757 48.5621C41.2193 48.2489 40.802 46.5273 39.4973 45.0664C38.1931 43.6055 34.5684 42.0926 30.8765 42.0926C27.1845 42.0926 22.9774 43.0246 20.8086 46.7358C19.6192 48.7706 22.2279 49.6057 23.0887 47.1536Z" fill="#853317"/>
<path d="M52.6645 59.1381V67.1985C52.6645 67.3196 52.6625 67.4388 52.6587 67.5579C52.5178 71.7966 49.8942 73.9556 46.8839 73.9556H15.7805C14.1156 73.9556 12.5698 73.2948 11.4962 71.9871C11.1986 71.6239 10.9366 71.2092 10.7184 70.7468C10.3016 69.8638 10.0476 68.7999 10.006 67.5579C10.002 67.4388 10 67.3198 10 67.1985V59.1381C10 58.7353 10.0337 58.2948 10.0972 57.8324C10.1984 57.1398 10.379 56.3957 10.6588 55.6575C11.6967 52.8555 14.0998 50.1012 18.6301 50.1012H44.0343C48.5647 50.1012 50.9676 52.8555 52.0056 55.6575C52.2854 56.3957 52.4658 57.1398 52.5672 57.8324C52.6307 58.2948 52.6645 58.7353 52.6645 59.1381Z" fill="#A94219"/>
<g style="mix-blend-mode:multiply" opacity="0.4">
<path d="M52.6644 63.1433V67.1992C52.6644 67.3202 52.6624 67.4395 52.6587 67.5586C52.5178 71.7972 49.8942 73.9562 46.8839 73.9562H15.7805C14.1156 73.9562 12.5698 73.2954 11.4962 71.9877C14.4629 72.0631 18.3741 71.7516 20.4121 69.8743C20.4121 69.8743 36.1721 72.2874 42.1769 67.5586C42.1769 67.5586 49.4755 67.7372 52.6644 63.1433Z" fill="#8C3517"/>
</g>
<path d="M52.6644 67.1992V67.5585H52.6587C52.6625 67.4393 52.6644 67.3202 52.6644 67.1992Z" fill="#A94219"/>
<path d="M22.329 72.8821C22.4718 73.2373 22.6246 73.5964 22.7854 73.9556C22.7854 73.9556 21.4638 75.4221 20.2513 73.9556C20.2513 73.9556 20.0806 73.6203 19.8326 72.9813C18.7471 70.1813 16.1992 61.573 20.2513 50.1012C20.2513 50.1012 21.6443 48.6367 22.7854 50.1012C22.7854 50.1012 17.4037 60.6324 22.329 72.8821Z" fill="#421E1D"/>
<path d="M41.6729 72.511C41.3356 73.4536 41.0796 73.9556 41.0796 73.9556C39.8673 75.4221 38.5455 73.9556 38.5455 73.9556C38.7063 73.5962 38.8591 73.2373 39.0019 72.8821C43.9272 60.6324 38.5455 50.1012 38.5455 50.1012C39.6866 48.6367 41.0796 50.1012 41.0796 50.1012C44.9254 60.9916 42.8239 69.3002 41.6729 72.511Z" fill="#421E1D"/>
<path d="M36.7609 59.8168C36.7609 60.7124 36.0283 61.445 35.1325 61.445H27.5339C26.6384 61.445 25.9055 60.7124 25.9055 59.8168V56.2888C25.9055 55.3932 26.6382 54.6606 27.5339 54.6606H35.1325C36.0283 54.6606 36.7609 55.3932 36.7609 56.2888V59.8168Z" fill="#D97F00"/>
<path d="M66.7788 15.7085V20.0189C65.0676 20.0189 63.5981 19.9056 62.339 19.7204C57.6446 19.0325 55.5081 17.9284 55.5081 17.9284C55.5081 17.9284 55.1825 14.5737 55.8039 13.4251C55.8039 13.4251 55.6975 14.6692 62.339 15.4276C63.5893 15.5706 65.0552 15.7085 66.7788 15.7085Z" fill="#E0E0E0"/>
<path d="M66.7788 15.6622V20.0186C65.0375 20.0186 63.5422 19.9041 62.2609 19.7169V15.3785C63.5296 15.5534 65.0249 15.6622 66.7788 15.6622Z" fill="#DC3224"/>
<defs>
<linearGradient id="paint0_linear_13337_183" x1="37.5504" y1="23.1575" x2="42.6237" y2="34.9095" gradientUnits="userSpaceOnUse">
<stop stop-color="#E5C293"/>
<stop offset="1" stop-color="#FFE9C7"/>
</linearGradient>
</defs>
</svg>
